<?xml version="1.0" encoding="utf-8"?>
<!-- Generator: Adobe Illustrator 19.0.1, SVG Export Plug-In . SVG Version: 6.00 Build 0)  -->
<!DOCTYPE svg PUBLIC "-//W3C//DTD SVG 1.1//EN" "http://www.w3.org/Graphics/SVG/1.1/DTD/svg11.dtd">
<svg version="1.1" id="Layer_1" xmlns="http://www.w3.org/2000/svg" xmlns:xlink="http://www.w3.org/1999/xlink" x="0px" y="0px"
	 viewBox="0 0 16 16" enable-background="new 0 0 16 16" xml:space="preserve">
<polygon fill="#CCCCCC" points="12,7 9,7 9,4 7,4 7,7 4,7 4,9 7,9 7,12 9,12 9,9 12,9 "/>
<path fill="#CCCCCC" d="M8,0C3.6,0,0,3.6,0,8c0,4.4,3.6,8,8,8s8-3.6,8-8C16,3.6,12.4,0,8,0z M8,14.9c-3.8,0-6.9-3.1-6.9-6.9
	S4.2,1.1,8,1.1s6.9,3.1,6.9,6.9S11.8,14.9,8,14.9z"/>
</svg>
