<?xml version="1.0" encoding="utf-8"?>
<!-- Generator: Adobe Illustrator 18.1.1, SVG Export Plug-In . SVG Version: 6.00 Build 0)  -->
<!DOCTYPE svg PUBLIC "-//W3C//DTD SVG 1.1//EN" "http://www.w3.org/Graphics/SVG/1.1/DTD/svg11.dtd">
<svg version="1.1" id="Layer_1" xmlns="http://www.w3.org/2000/svg" xmlns:xlink="http://www.w3.org/1999/xlink" x="0px" y="0px"
	 viewBox="0 0 16 16" enable-background="new 0 0 16 16" xml:space="preserve">
<path opacity="0.4" enable-background="new    " d="M4,1L0,8l0,0l0,0l0,1l3.9,6l1.4-0.8l-0.2-1L2.1,8l3.1-4.3l0-1L4,1z M12.1,15
	L16,9l0-1h0h0h0l0,0l-3.9-7L11,2.7l-0.1,1L14,8l-3,5.3l-0.2,1L12.1,15z"/>
<path fill="#EDEDED" d="M4,2L0,9l4,7l1.2-1.8L2.2,9l3-5.3L4,2z M12,16l4-7l-4-7l-1.1,1.8L13.8,9l-3.1,5.3L12,16z"/>
</svg>
