<?xml version="1.0" encoding="utf-8"?>
<!-- Generator: Adobe Illustrator 18.1.1, SVG Export Plug-In . SVG Version: 6.00 Build 0)  -->
<!DOCTYPE svg PUBLIC "-//W3C//DTD SVG 1.1//EN" "http://www.w3.org/Graphics/SVG/1.1/DTD/svg11.dtd">
<svg version="1.1" id="Layer_1" xmlns="http://www.w3.org/2000/svg" xmlns:xlink="http://www.w3.org/1999/xlink" x="0px" y="0px"
	 viewBox="0 0 16 16" enable-background="new 0 0 16 16" xml:space="preserve">
<g opacity="0.4" enable-background="new    ">
	<path d="M12.9,10H3.1C1.4,10,0,8.6,0,6.9V3.1C0,1.4,1.4,0,3.1,0h9.7C14.6,0,16,1.4,16,3.1v3.7C16,8.6,14.6,10,12.9,10z"/>
</g>
<g>
	<linearGradient id="SVGID_1_" gradientUnits="userSpaceOnUse" x1="8" y1="2.3813" x2="8" y2="9.5925">
		<stop  offset="0" style="stop-color:#9B9B9B"/>
		<stop  offset="1" style="stop-color:#828282"/>
	</linearGradient>
	<path fill="url(#SVGID_1_)" d="M3.1,10.5c-1.5,0-2.6-1.2-2.6-2.6V4.1c0-1.5,1.2-2.6,2.6-2.6h9.7c1.5,0,2.6,1.2,2.6,2.6v3.7
		c0,1.5-1.2,2.6-2.6,2.6H3.1z"/>
	<path fill="#E0E0E0" d="M12.9,2C14,2,15,3,15,4.1v3.7C15,9,14,10,12.9,10H3.1C2,10,1,9,1,7.9V4.1C1,3,2,2,3.1,2H12.9 M12.9,1H3.1
		C1.4,1,0,2.4,0,4.1v3.7C0,9.6,1.4,11,3.1,11h9.7c1.7,0,3.1-1.4,3.1-3.1V4.1C16,2.4,14.6,1,12.9,1L12.9,1z"/>
</g>
<polygon opacity="0.4" enable-background="new    " points="8,5 8,15 10.7,12 15,12 "/>
<polygon fill="#FFFFFF" points="8,6 8,16 10.7,13 15,13 "/>
</svg>
