<?xml version="1.0" encoding="utf-8"?>
<!-- Generator: Adobe Illustrator 18.1.1, SVG Export Plug-In . SVG Version: 6.00 Build 0)  -->
<!DOCTYPE svg PUBLIC "-//W3C//DTD SVG 1.1//EN" "http://www.w3.org/Graphics/SVG/1.1/DTD/svg11.dtd">
<svg version="1.1" id="Layer_1" xmlns="http://www.w3.org/2000/svg" xmlns:xlink="http://www.w3.org/1999/xlink" x="0px" y="0px"
	 viewBox="0 0 16 16" enable-background="new 0 0 16 16" xml:space="preserve">
<g opacity="0.4" enable-background="new    ">
	<polygon points="8,0 10.5,4.3 16,5.1 16,5.1 16,6.1 12,9.2 13,15 13,16 8,12.3 3,16 3,15 4,9.2 0,6.1 0,5.1 5.5,4.3 	"/>
</g>
<g>
	<linearGradient id="SVGID_1_" gradientUnits="userSpaceOnUse" x1="5.9283" y1="6.2431" x2="11.1694" y2="13.1688">
		<stop  offset="0" style="stop-color:#9A9A9A"/>
		<stop  offset="1" style="stop-color:#838383"/>
	</linearGradient>
	<polygon fill="url(#SVGID_1_)" points="8,12.7 3.7,15.1 4.5,10 1,6.5 5.9,5.7 8,1.2 10.1,5.7 15,6.5 11.5,10 12.3,15.1 	"/>
	<path fill="#EDEDED" d="M8,2.4l1.6,3.3l0.2,0.5l0.5,0.1l3.6,0.6l-2.6,2.7l-0.4,0.4l0.1,0.5l0.6,3.8l-3.1-1.7L8,12.1l-0.5,0.3
		l-3.1,1.7L5,10.4l0.1-0.5L4.7,9.5L2.1,6.8l3.6-0.6l0.5-0.1l0.2-0.5L8,2.4 M8,0L5.5,5.3L0,6.1l4,4.1L3.1,16L8,13.3L13,16L12,10.2
		l4-4.1l-5.5-0.8L8,0L8,0z"/>
</g>
</svg>
