<?xml version="1.0" encoding="utf-8"?>
<!-- Generator: Adobe Illustrator 18.1.0, SVG Export Plug-In . SVG Version: 6.00 Build 0)  -->
<svg version="1.1" id="Слой_1" xmlns="http://www.w3.org/2000/svg" xmlns:xlink="http://www.w3.org/1999/xlink" x="0px" y="0px"
	 viewBox="0 0 16 16" enable-background="new 0 0 16 16" xml:space="preserve">
<path opacity="0.4" fill="#231F20" d="M2,1.2h12v4h-1V4.8c0-1.4-1.2-2.6-2.6-2.6H9v9.9c0,0.6,0.5,1.1,1.1,1.1H11v1H5v-1h0.9
	c0.6,0,1.1-0.5,1.1-1.1V2.2H5.6C4.2,2.2,3,3.4,3,4.8v0.4H2V1.2z"/>
<path fill="#E6E6E6" d="M2,2h12v4h-1V5.6C13,4.2,11.8,3,10.4,3H9v9.9c0,0.6,0.5,1.1,1.1,1.1H11v1H5v-1h0.9C6.5,14,7,13.5,7,12.9V3
	H5.6C4.2,3,3,4.2,3,5.6V6H2V2z"/>
</svg>
